<?xml version="1.0" standalone="no"?>
<!DOCTYPE svg PUBLIC "-//W3C//DTD SVG 20010904//EN"
 "http://www.w3.org/TR/2001/REC-SVG-20010904/DTD/svg10.dtd">
<svg version="1.0" xmlns="http://www.w3.org/2000/svg"
 width="280.000000pt" height="280.000000pt" viewBox="0 0 280.000000 280.000000"
 preserveAspectRatio="xMidYMid meet">
<metadata>
Created by potrace 1.14, written by Peter Selinger 2001-2017
</metadata>
<g transform="translate(0.000000,280.000000) scale(0.100000,-0.100000)"
fill="#000000" stroke="none">
<path d="M360 1380 l0 -1081 573 3 c541 4 578 6 692 27 490 91 800 366 886
785 90 440 -43 846 -359 1097 -131 105 -268 169 -462 217 l-105 26 -612 3
-613 4 0 -1081z m1134 661 c246 -66 405 -222 462 -456 13 -50 18 -109 17 -205
-1 -227 -49 -356 -183 -491 -59 -60 -93 -85 -160 -117 -122 -59 -210 -72 -491
-72 l-229 0 0 686 0 686 253 -5 c215 -4 264 -8 331 -26z"/>
</g>
</svg>
